<svg xmlns="http://www.w3.org/2000/svg" viewBox="0 0 343.26 126.6"><defs><style>.cls-1{fill:#fff;}</style></defs><g id="圖層_2" data-name="圖層 2"><g id="圖層_1-2" data-name="圖層 1"><g id="Group_4248" data-name="Group 4248"><path id="Path_461" data-name="Path 461" class="cls-1" d="M13.22,44.13q-.72,17.06-.49,34.12c0,.62.22,2.67,1.21,2.59s1.09-2,1.08-2.65q-.24-16.36.44-32.72c0-.74.1-2.92-.88-3.2s-1.33,1.13-1.36,1.86Z"/><path id="Path_462" data-name="Path 462" class="cls-1" d="M.22,69.54c.62,2.94-.89,5.84.71,8.74,1.42,2.58,4.49,3.17,7.21,3.18C14.91,81.48,20,76.64,24,71.7l-.87.29c1.69,1,2.7,2.71,4.07,4,1.55,1.51,2.11-3.51,1-4.55C26.67,70,25.55,68,23.61,66.92c-.35-.2-.65,0-.87.29-3.33,4.11-7.45,8.22-13,8.91-2.32.29-7,.42-7.46-2.62-.34-2.17.28-4.4-.19-6.66-.2-1-.79-1.5-1.59-.9s-.49,2.78-.32,3.6Z"/><path id="Path_463" data-name="Path 463" class="cls-1" d="M30.67,37.76A38.54,38.54,0,0,1,43.6,29.45c1.4-.55,1-5.7-.73-5a38.39,38.39,0,0,0-12.93,8.31A3.77,3.77,0,0,0,29.22,36c.05.37.66,2.56,1.45,1.8Z"/><path id="Path_464" data-name="Path 464" class="cls-1" d="M28.86,24.94a104.92,104.92,0,0,0,3.29,37.74c.26.94.76,1.53,1.59.9s.54-2.8.32-3.59a93.53,93.53,0,0,1-3-33.71C31.32,24,29.19,21.39,28.86,24.94Z"/><path id="Path_465" data-name="Path 465" class="cls-1" d="M34.9,72.21A450.26,450.26,0,0,1,96.84,50.57c1.71-.46,1.19-5.59-.13-5.24A453.66,453.66,0,0,0,34.17,67.18c-1.4.6-.92,5.75.73,5Z"/><path id="Path_466" data-name="Path 466" class="cls-1" d="M53.75,32.54l12.73-2.13c1.69-.28,1.33-5.48-.13-5.24L53.62,27.3C51.93,27.59,52.3,32.79,53.75,32.54Z"/><path id="Path_467" data-name="Path 467" class="cls-1" d="M58.81,20.24q-.57,6.45-.89,12.92c-.16,3.29-.84,7.2,0,10.44.77,3,2.54,3.2,5.25,2.33,2.16-.7,4.31-1.43,6.47-2.14.9-.3,1.79-.62,2.7-.9,1.28-.4.94-.65,1.16,0,.41,1.19-1.77,5-2.31,6.21-.94,2.05-2,4-3.14,6-2.07,3.58-4.29,7.09-6.56,10.55q-7,10.71-15,20.72c-.92,1.15,0,6.15,1.27,4.49Q55.87,80.6,63.06,69.64c4.57-7,9.37-14.27,11.92-22.31.8-2.55,2.06-6.27.51-8.83s-6.5.22-8.68.94c-1.57.52-4,1.85-5.57,1.82-2.29,0-1.21-3.79-1.13-5.59q.31-7.05.94-14.09c.07-.73.08-2.93-.87-3.2s-1.3,1.14-1.37,1.86Z"/><path id="Path_468" data-name="Path 468" class="cls-1" d="M81.7,22.5a8.47,8.47,0,0,1,7.6.9c2.89,2.07,2.2,7.39,2,10.52a50.77,50.77,0,0,1-6.09,20.13,4.7,4.7,0,0,0-.32,3.6c.18.51,1,2,1.59.9a58.34,58.34,0,0,0,7.21-28.34c0-3.61,0-8.06-2.69-10.86a9.44,9.44,0,0,0-10-1.88c-1.4.6-.92,5.74.74,5Z"/><path id="Path_469" data-name="Path 469" class="cls-1" d="M78.63,69.82a45.58,45.58,0,0,1,12.91,9.6C93,81,93.61,76,92.59,74.87A48,48,0,0,0,79.12,64.75c-1.5-.75-1.92,4.34-.49,5.07Z"/><path id="Path_470" data-name="Path 470" class="cls-1" d="M31.2,47.64a15.46,15.46,0,0,0,11.21-3.15c1.3-1,.48-6-.73-5a14.4,14.4,0,0,1-10.61,3c-1.46-.17-1.59,5,.13,5.23Z"/><path id="Path_471" data-name="Path 471" class="cls-1" d="M34.24,59.72l13.14-6c1.4-.63.89-5.77-.73-5l-13.14,6c-1.4.64-.89,5.77.73,5Z"/><g id="Group_4240" data-name="Group 4240"><path id="Path_485" data-name="Path 485" class="cls-1" d="M138.43,22a108.8,108.8,0,0,0,16-5.59c1.12-.5.83-4.57-.44-4a104.69,104.69,0,0,1-15.56,5.44C137.1,18.21,137.41,22.26,138.43,22Z"/><path id="Path_486" data-name="Path 486" class="cls-1" d="M139.11,78.35a27.07,27.07,0,0,0,10.68-7.45c.77-.87.24-4.84-.88-3.58a25.88,25.88,0,0,1-10.25,7c-1.12.43-.89,4.51.44,4Z"/><path id="Path_490" data-name="Path 490" class="cls-1" d="M116.77,37a39.6,39.6,0,0,0,13.57-2c1.12-.37.95-4.45-.44-4a38.24,38.24,0,0,1-13.09,1.87C115.55,32.85,115.47,37,116.77,37Z"/><path id="Path_491" data-name="Path 491" class="cls-1" d="M117.1,50.53a63.25,63.25,0,0,0,12.24-5.67c1.1-.66.67-4.66-.43-4a63.06,63.06,0,0,1-12.25,5.68c-1.12.38-.93,4.47.44,4Z"/><path id="Path_492" data-name="Path 492" class="cls-1" d="M134.38,47.67a216.67,216.67,0,0,1-17.1,14.17c-1,.77-.51,4.71.44,4a216.3,216.3,0,0,0,17.1-14.17C135.78,50.79,135.17,47,134.38,47.67Z"/><path id="Path_493" data-name="Path 493" class="cls-1" d="M143.72,30.4A31.9,31.9,0,0,1,152,28.28c1.66-.19,6.85-1.05,8.05.52.52.69.42,2.68.43,3.53a17.94,17.94,0,0,1-.4,3.79,19.5,19.5,0,0,1-3.38,7.37c-.69.94-.07,4.89.87,3.59a25.11,25.11,0,0,0,4.29-19.23c-.23-1.23-.45-2.73-1.62-3.41-1.35-.79-3.62-.54-5.13-.51a33.42,33.42,0,0,0-11.8,2.46c-1.13.45-.88,4.52.44,4Z"/><path id="Path_494" data-name="Path 494" class="cls-1" d="M144.81,44.25A55.92,55.92,0,0,1,157,38.62c1.12-.36.95-4.45-.44-4a55.92,55.92,0,0,0-12.16,5.63c-1.09.67-.64,4.67.44,4Z"/><path id="Path_495" data-name="Path 495" class="cls-1" d="M143,52.55A52.65,52.65,0,0,0,155.91,49c1.12-.47.86-4.54-.44-4A50.33,50.33,0,0,1,143,48.4C141.68,48.59,141.84,52.71,143,52.55Z"/><path id="Path_496" data-name="Path 496" class="cls-1" d="M142.22,35.07l-1.46,38.29c-.09,2.46,1.72,2.48,1.81,0L144,35.09c.1-2.46-1.71-2.48-1.8,0Z"/><path id="Path_497" data-name="Path 497" class="cls-1" d="M165.66,55.31a52.67,52.67,0,0,1-7.31,6.36c-1,.76-.54,4.71.44,4a56.71,56.71,0,0,0,7.75-6.77c.8-.85.3-4.83-.88-3.59Z"/><path id="Path_498" data-name="Path 498" class="cls-1" d="M149.18,62.24c9.5,4.47,19.93,6.26,30.16,8.28,10.92,2.15,21.86,4.21,32.81,6.27,1.1.2,1.4-3.89,0-4.15-10.63-2-21.26-4-31.87-6.08-10.37-2-21-3.78-30.61-8.31-1.25-.59-1.66,3.46-.53,4Z"/></g><g id="Group_135" data-name="Group 135"><g id="Group_130" data-name="Group 130"><g id="Group_129" data-name="Group 129"><g id="Group_127" data-name="Group 127"><path id="Path_360" data-name="Path 360" class="cls-1" d="M231.16,21.89c-1,2.73-.74,6.14-.42,9,.16,1.52,4.93,1.07,4.84-.5-.17-2.86-.42-6.28-1.91-8.78-.33-.55-2.28-.32-2.51.26Z"/><path id="Path_361" data-name="Path 361" class="cls-1" d="M233.23,32.13h0c-1.3.11-2.66-.22-2.76-1.19-.36-3.3-.59-6.48.44-9.17h0c.18-.47.91-.7,1.53-.75h0c.35,0,1.21-.05,1.51.45,1.59,2.67,1.81,6.43,1.95,8.93C235.94,31.43,234.6,32,233.23,32.13Zm-.77-10.49a1.49,1.49,0,0,0-1,.36h0c-1,2.55-.75,5.65-.41,8.87.05.46,1,.74,2.1.64h0c1.2-.11,2.12-.58,2.09-1.08-.19-3.22-.48-6.3-1.87-8.64,0-.08-.37-.2-.93-.15Z"/></g><g id="Group_128" data-name="Group 128"><path id="Path_362" data-name="Path 362" class="cls-1" d="M233.21,32.34h0c-1.71.15-2.89-.4-3-1.38-.35-3.32-.59-6.53.46-9.26h0c.27-.71,1.39-.86,1.73-.89h0c.4,0,1.35,0,1.71.56,1.61,2.71,1.84,6.5,2,9C236.16,31.57,234.7,32.22,233.21,32.34ZM231.64,22.1c-1,2.51-.73,5.58-.39,8.75,0,.25.75.55,1.87.45h0c1.13-.09,1.95-.53,1.93-.86-.14-2.41-.35-6.05-1.83-8.54a2.22,2.22,0,0,0-1.58.2Z"/><path id="Path_363" data-name="Path 363" class="cls-1" d="M233.27,32.65h0c-1.9.16-3.2-.49-3.33-1.66-.36-3.36-.6-6.61.48-9.4.32-.85,1.52-1,2-1.08s1.56-.05,2,.71c1.65,2.77,1.87,6.61,2,9.16C236.48,31.75,234.89,32.5,233.27,32.65Zm-.06-.31,0-.31h0c1.28-.11,2.63-.67,2.57-1.63-.14-2.48-.36-6.23-1.93-8.88-.28-.46-1.16-.43-1.42-.4h0c-.58.05-1.3.26-1.46.69-1,2.67-.79,5.83-.44,9.12.09.8,1.13,1.23,2.66,1.1Zm0-.73h0c-1.2.1-2.15-.22-2.21-.73-.34-3.22-.58-6.32.4-8.9l.07-.11a2.36,2.36,0,0,1,2-.23l.08.09c1.52,2.56,1.74,6.25,1.88,8.69,0,.64-1.09,1.09-2.19,1.19Zm-1.63-.84a2.51,2.51,0,0,0,1.55.23h0a2.47,2.47,0,0,0,1.62-.57c-.14-2.32-.35-5.86-1.75-8.29a3,3,0,0,0-1.11.15c-.89,2.42-.67,5.39-.34,8.49Z"/></g></g></g><g id="Group_134" data-name="Group 134"><g id="Group_133" data-name="Group 133"><g id="Group_131" data-name="Group 131"><path id="Path_364" data-name="Path 364" class="cls-1" d="M216.64,40.93c3.6-1.3,6.93-3.18,10.56-4.39A42.49,42.49,0,0,1,240,34.36l-1.79-1.67c-7.58,8.18-15.09,16.49-23.15,24.19-.83.79.36,1.43,1.08,1.51,5.5.63,11.14,1.12,16.44,2.8s10,4.7,14.54,7.93c1.28.91,6.28-.4,4.45-1.7-4.8-3.4-9.83-6.51-15.48-8.29s-11.68-2.37-17.57-3l1.08,1.51A332.93,332.93,0,0,0,243,33.48c1.25-1.47-1.71-1.68-2.51-1.64a54.93,54.93,0,0,0-14.52,2.76c-3.73,1.24-8.33,2.88-10.88,6-.38.47,1.43.35,1.58.3Z"/><path id="Path_365" data-name="Path 365" class="cls-1" d="M249,69.71a3.25,3.25,0,0,1-2.08-.34c-4.3-3.07-9-6.15-14.46-7.88a76.41,76.41,0,0,0-14.64-2.6l-1.74-.19a2,2,0,0,1-1.59-1,1,1,0,0,1,.33-1c6.78-6.47,13.26-13.49,19.52-20.27L235.68,35a40.73,40.73,0,0,0-8.39,1.87c-1.91.64-3.77,1.49-5.58,2.3-1.61.72-3.27,1.47-5,2.09h0c-.07,0-1.63.24-2-.23a.44.44,0,0,1,0-.56c2.51-3.1,6.82-4.73,11-6.13a55.45,55.45,0,0,1,14.6-2.77s2.56-.08,3.06.94c.13.25.18.66-.29,1.21a311.28,311.28,0,0,1-21.64,22.45,78.57,78.57,0,0,1,14.6,2.7c6,1.9,11.25,5.28,15.57,8.34a1,1,0,0,1,.52.9c0,.42-.4.79-1.07,1.1A7.19,7.19,0,0,1,249,69.71Zm-12.4-34.85-1.8,2c-6.27,6.78-12.76,13.81-19.55,20.29-.23.21-.19.34-.17.38.09.28.65.55,1.07.6l1.74.19a76.27,76.27,0,0,1,14.76,2.63c5.52,1.75,10.29,4.86,14.63,8,.58.41,2.45.28,3.64-.26.51-.24.71-.47.72-.59s-.09-.22-.27-.35c-4.28-3-9.45-6.37-15.39-8.24a79.58,79.58,0,0,0-15-2.74l-1.2,1.15-.26.25-1.68-2.36,1.7.19,1.22.13q11.53-10.83,22-22.76c.14-.16.28-.39.21-.54-.21-.42-1.63-.64-2.47-.59s-1.5.09-2.24.16l2.52,2.35H240c-1.15,0-2.28.08-3.39.19ZM219.16,56.49l.48.66.56-.55-.7-.07Zm-3.72-15.84a4.58,4.58,0,0,0,1.11,0c1.67-.6,3.32-1.34,4.91-2.06,1.82-.82,3.7-1.67,5.64-2.33a41.54,41.54,0,0,1,9.21-2L238,32.49l.15-.16A54.28,54.28,0,0,0,226,34.89c-4,1.35-8.18,2.9-10.6,5.76Zm21.79-6.46c.66,0,1.32-.09,2-.11l-1-.95Z"/></g><g id="Group_132" data-name="Group 132"><path id="Path_366" data-name="Path 366" class="cls-1" d="M249,69.93a3.37,3.37,0,0,1-2.18-.39c-4.29-3.05-9-6.12-14.4-7.84a75.49,75.49,0,0,0-14.6-2.59l-1.74-.2a2.17,2.17,0,0,1-1.77-1.15,1.15,1.15,0,0,1,.39-1.25c6.76-6.46,13.22-13.46,19.48-20.23l1-1A39.69,39.69,0,0,0,227.37,37a59.22,59.22,0,0,0-5.57,2.3c-1.61.72-3.27,1.48-5,2.09h0s-1.76.32-2.21-.31a.66.66,0,0,1,0-.81c2.55-3.15,6.89-4.79,11.13-6.2a55,55,0,0,1,14.65-2.78s2.68-.11,3.26,1a1.3,1.3,0,0,1-.32,1.45c-6.49,7.63-13.54,14.63-21.33,22.15a75.37,75.37,0,0,1,14.19,2.66c6,1.9,11.29,5.29,15.62,8.36a1.19,1.19,0,0,1,.62,1.1c0,.5-.46.92-1.2,1.26A7.35,7.35,0,0,1,249,69.93ZM219.67,58.27a67.33,67.33,0,0,1,13.05,2.44c5.55,1.76,10.34,4.87,14.69,8a4.48,4.48,0,0,0,3-.12c.78-.26,1-.53,1-.59s-.05,0-.18-.14c-4.26-3-9.42-6.36-15.33-8.22a78.9,78.9,0,0,0-14.85-2.72L220,58Zm17-23.2L234.94,37c-6.27,6.78-12.75,13.8-19.53,20.27a.28.28,0,0,0-.12.16,1.3,1.3,0,0,0,.9.46l1.73.19,1.47.16-2-2.77,2.17.24,1.12.12c7.43-7.16,14.18-13.82,20.4-21l-1.1,0c-1.12,0-2.22.09-3.3.19Zm-17.1,21.68,0,.07.07-.06ZM215.9,40.46q.3,0,.6,0c1.65-.61,3.29-1.35,4.88-2.06,1.82-.82,3.71-1.67,5.66-2.33a41.62,41.62,0,0,1,9.18-2l1.37-1.48a55,55,0,0,0-11.48,2.5c-3.85,1.29-7.79,2.76-10.21,5.37Zm22.84-8,2.45,2.28c.47-.53.93-1.07,1.39-1.62.19-.21.18-.31.18-.31-.1-.26-1.34-.52-2.27-.47-.59,0-1.18.06-1.76.12Zm-1,1.46,1-.06-.49-.45Z"/><path id="Path_367" data-name="Path 367" class="cls-1" d="M249.05,70.23h0a3.76,3.76,0,0,1-2.39-.44c-4.26-3-9-6.1-14.31-7.8a75.5,75.5,0,0,0-14.54-2.58L216,59.22a2.46,2.46,0,0,1-2-1.37,1.46,1.46,0,0,1,.46-1.57c6.76-6.44,13.22-13.44,19.47-20.21l.38-.4a39.29,39.29,0,0,0-6.85,1.65A59,59,0,0,0,222,39.59c-1.65.75-3.32,1.5-5,2.12,0,0-2,.41-2.57-.42a1,1,0,0,1,.06-1.19c2.6-3.2,7-4.86,11.27-6.29A56,56,0,0,1,240.42,31c.12,0,2.89-.11,3.55,1.23a1.55,1.55,0,0,1-.36,1.78,297.19,297.19,0,0,1-20.87,21.72,74,74,0,0,1,13.6,2.6c6.09,1.92,11.36,5.32,15.71,8.4a1.52,1.52,0,0,1,.74,1.38c-.06.62-.52,1.13-1.38,1.52A7.72,7.72,0,0,1,249.05,70.23Zm-13.12-35.4-1.54,1.66c-6.26,6.78-12.73,13.78-19.5,20.24a.85.85,0,0,0-.3.93,1.9,1.9,0,0,0,1.51,1l1.73.19a75.32,75.32,0,0,1,14.67,2.6c5.44,1.73,10.17,4.82,14.48,7.89a3.13,3.13,0,0,0,2,.33h0a6.84,6.84,0,0,0,2.19-.54c.64-.29,1-.64,1-1a.8.8,0,0,0-.23-.6l-.2.62c-.07.2-.42.52-1.22.79-1.11.37-2.7.5-3.28.08-4.33-3.1-9.1-6.2-14.6-8a67.83,67.83,0,0,0-12.8-2.4l-3.68-.41c-.44,0-1.11-.35-1.17-.71v-.06a.58.58,0,0,1,.21-.37l1.75-1.69-.19-.27.42.05c6.06-5.92,11.89-12.22,17.53-18.33l1.87-2h.12c1.08-.09,2.19-.16,3.31-.18h.52l-2.34-2.17-1.82,2h-.12a40.57,40.57,0,0,0-9.11,2,59.16,59.16,0,0,0-5.6,2.3c-1.62.73-3.26,1.47-4.93,2.08a4.24,4.24,0,0,1-.71.05h-.7l.47-.51c2.49-2.68,6.48-4.16,10.35-5.45a54.76,54.76,0,0,1,11.54-2.51l.82-.09h0l.34,0c.57,0,1.18-.09,1.77-.12s2.36.12,2.57.67l0,.08a.77.77,0,0,1-.25.55l-1,1.19h0l-.46.53c-6.51,7.47-13.65,14.46-20.42,21l-.1.1-2.75-.3,1.5,2.1,1.4-1.35h.14A78.7,78.7,0,0,1,236,59.35c5.95,1.87,11.13,5.22,15.42,8.26l.33-.28-.09-.07c-4.31-3.05-9.53-6.42-15.53-8.31A75.44,75.44,0,0,0,222,56.3l-.66-.08.48-.46a304.78,304.78,0,0,0,21.3-22.13,1,1,0,0,0,.28-1.11c-.4-.8-2.32-.91-3-.88a54.83,54.83,0,0,0-14.57,2.77c-4.18,1.4-8.48,3-11,6.1a.33.33,0,0,0,0,.44c.25.35,1.44.27,1.9.18,1.65-.6,3.31-1.34,4.9-2.07,1.85-.83,3.7-1.67,5.61-2.31A40.32,40.32,0,0,1,235.1,35ZM220.35,58a65.25,65.25,0,0,1,12.46,2.37c5.59,1.78,10.4,4.91,14.78,8a4.4,4.4,0,0,0,2.73-.16A3,3,0,0,0,251,68c-4.22-3-9.31-6.26-15.12-8.09a78.38,78.38,0,0,0-14.65-2.68Zm-4.65-.64a1.34,1.34,0,0,0,.51.17l2.52.28-1.43-2-1.59,1.54ZM218,55.22l2.62.28c6.57-6.32,13.49-13.1,19.82-20.31H240c-1.07,0-2.12,0-3.15.17l-1.69,1.83c-5.55,6-11.26,12.19-17.2,18ZM236.79,33a54.12,54.12,0,0,0-10.59,2.39c-3.44,1.14-7,2.45-9.38,4.6,1.47-.56,3-1.24,4.42-1.89a59.07,59.07,0,0,1,5.69-2.34,41.33,41.33,0,0,1,9.13-2Zm2.66-.27,1.7,1.59c.4-.45.79-.91,1.18-1.37l0,0a5.34,5.34,0,0,0-1.86-.26l-1,.06Zm-19.77,24.5-.33-.3-.4-.55,1.44.16Zm19.78-23.07-.74,0-.95,0-.78,0,1.22-1.3Z"/></g></g></g></g><g id="Group_177" data-name="Group 177"><g id="Group_176" data-name="Group 176"><g id="Group_174" data-name="Group 174"><path id="Path_398" data-name="Path 398" class="cls-1" d="M303.8,61a49.24,49.24,0,0,0,2.7,13.42c.36,1.13,3.88.55,3.6-.47-1.2-4.41-2.12-9-3.55-13.3-.26-.79-2.77-.5-2.75.36Z"/><path id="Path_399" data-name="Path 399" class="cls-1" d="M308.44,75.26c-.91.11-1.94,0-2.16-.75A49.37,49.37,0,0,1,303.57,61c0-.49.49-.88,1.32-1s1.7,0,1.9.58c.91,2.78,1.63,5.7,2.33,8.52.39,1.58.79,3.21,1.22,4.79.14.5-.3,1-1.17,1.21A4.29,4.29,0,0,1,308.44,75.26ZM304,61a49.49,49.49,0,0,0,2.69,13.35c.16.5,1.39.57,2.3.3.55-.16.9-.42.84-.63-.43-1.58-.83-3.22-1.22-4.8-.7-2.81-1.42-5.72-2.33-8.49-.07-.22-.64-.38-1.36-.25-.53.09-.93.32-.92.53Z"/></g><g id="Group_175" data-name="Group 175"><path id="Path_400" data-name="Path 400" class="cls-1" d="M308.46,75.87c-1.23.14-2.45-.18-2.76-1.18A50.16,50.16,0,0,1,303,61c0-.8.68-1.43,1.82-1.63s2.27.05,2.58,1c.92,2.81,1.64,5.74,2.34,8.58.39,1.57.79,3.19,1.22,4.76.18.67-.14,1.53-1.58,2A5.26,5.26,0,0,1,308.46,75.87Zm-1.18-1.76a2.88,2.88,0,0,0,1.94-.17c-.41-1.51-.79-3.06-1.16-4.56-.68-2.75-1.38-5.6-2.26-8.3a2.14,2.14,0,0,0-1.15.11,49.14,49.14,0,0,0,2.63,12.92Z"/><path id="Path_401" data-name="Path 401" class="cls-1" d="M308.51,76.11h0c-1.54.17-2.7-.35-3-1.35A50.21,50.21,0,0,1,302.72,61c0-.93.75-1.65,2-1.87s2.49.07,2.84,1.15c.93,2.81,1.65,5.74,2.35,8.57l0,.13c.38,1.53.77,3.12,1.19,4.66.2.74-.14,1.77-1.75,2.24A5.42,5.42,0,0,1,308.51,76.11Zm-.08-.48a3.39,3.39,0,0,0,.84-.17c1.28-.37,1.57-1.1,1.42-1.65-.42-1.55-.82-3.14-1.19-4.67l0-.1c-.7-2.85-1.42-5.77-2.34-8.56-.27-.8-1.39-1-2.31-.83s-1.64.71-1.63,1.39a50.48,50.48,0,0,0,2.73,13.59c.3.92,1.49,1.13,2.51,1Zm-.08-1.21a2.3,2.3,0,0,1-1.19-.1l-.08,0,0-.08a49.61,49.61,0,0,1-2.65-13v-.15l.06,0h0l.09,0a2.28,2.28,0,0,1,1.32-.13l.12,0,0,.12c.88,2.73,1.58,5.57,2.26,8.32l0,.09c.37,1.46.74,3,1.14,4.47l.05.17-.17.1a3,3,0,0,1-1,.26Zm-.87-.49a3.28,3.28,0,0,0,1.46-.12c-.38-1.43-.74-2.88-1.09-4.28l0-.09c-.67-2.7-1.35-5.48-2.21-8.15a2.45,2.45,0,0,0-.72.07,48.63,48.63,0,0,0,2.58,12.57Z"/></g></g></g><g id="Group_181" data-name="Group 181"><g id="Group_180" data-name="Group 180"><g id="Group_178" data-name="Group 178"><path id="Path_402" data-name="Path 402" class="cls-1" d="M309.73,57.73c-1.33.75-2.07.39-.76.26a14,14,0,0,1,1.7-.28c2.29,0,3.5,2,4.05,4,.89,3.37-.29,7,.08,10.5.05.5,1.74.11,1.79-.39.45-4.32,2.7-10.2-.7-14-2-2.26-5.43-2.3-8-.94-1.79,1,.88,1.31,1.8.8Z"/><path id="Path_403" data-name="Path 403" class="cls-1" d="M315.72,72.65a3.29,3.29,0,0,1-.44,0c-.6,0-.7-.32-.72-.45a24,24,0,0,1,.1-4.56,17.71,17.71,0,0,0-.17-5.9c-.38-1.43-1.37-3.83-3.81-3.84a3.42,3.42,0,0,0-1,.13l-.34.08h0c-.52.23-1.05.34-1.24.19l-.12-.1,0-.09a1.94,1.94,0,0,1-.66-.2.54.54,0,0,1-.29-.47c0-.26.24-.51.73-.78,2.39-1.27,6-1.5,8.25,1,2.72,3,1.94,7.3,1.25,11.08-.2,1.09-.38,2.11-.48,3.07C316.79,72.28,316.22,72.54,315.72,72.65Zm-5.78-15.1a3.65,3.65,0,0,1,.74-.08c2.76,0,3.86,2.64,4.27,4.2a17.89,17.89,0,0,1,.19,6.06,23.86,23.86,0,0,0-.1,4.47,1.62,1.62,0,0,0,.9-.11c.31-.12.41-.25.42-.28.1-1,.29-2,.49-3.11.67-3.67,1.43-7.83-1.13-10.67-2.09-2.31-5.45-2.08-7.68-.9-.44.24-.47.38-.47.38a.74.74,0,0,0,.24.11,2.78,2.78,0,0,0,1.8-.1h0l.05.09.27-.07Z"/></g><g id="Group_179" data-name="Group 179"><path id="Path_404" data-name="Path 404" class="cls-1" d="M315.82,73.24a2.48,2.48,0,0,1-.54.06,1.18,1.18,0,0,1-1.32-1,26,26,0,0,1,.09-4.67,16.73,16.73,0,0,0-.14-5.69c-.41-1.55-1.3-3.39-3.23-3.4a3.6,3.6,0,0,0-.81.12l-.3.08c-.56.23-1.34.44-1.8.08l-.18-.14a2.28,2.28,0,0,1-.51-.21,1.12,1.12,0,0,1-.59-1c0-.75.79-1.16,1.05-1.3,2.59-1.38,6.51-1.62,9,1.12,2.92,3.24,2.11,7.68,1.39,11.59-.2,1.08-.38,2.1-.48,3C317.36,72.67,316.56,73.1,315.82,73.24ZM311,56.88c2.14.18,3.76,1.84,4.5,4.63a18.29,18.29,0,0,1,.2,6.26,28.19,28.19,0,0,0-.14,3.79l.19-.07c.11-.92.28-1.89.47-2.9.68-3.71,1.38-7.54-1-10.16a5,5,0,0,0-4.22-1.55Z"/><path id="Path_405" data-name="Path 405" class="cls-1" d="M315.89,73.48h0a3,3,0,0,1-.59.06,1.43,1.43,0,0,1-1.56-1.2,26.59,26.59,0,0,1,.09-4.72,16.78,16.78,0,0,0-.14-5.61c-.38-1.46-1.22-3.21-3-3.21a2.33,2.33,0,0,0-.74.11l-.32.07a2,2,0,0,1-2,0l-.14-.12a2,2,0,0,1-.53-.22,1.34,1.34,0,0,1-.7-1.21,1.94,1.94,0,0,1,1.18-1.5c2.67-1.42,6.71-1.66,9.28,1.18,3,3.32,2.17,7.82,1.45,11.79-.2,1.08-.38,2.09-.48,3A2,2,0,0,1,315.89,73.48Zm-5.78-15.1a2.69,2.69,0,0,1,.57-.06c1.65,0,2.84,1.24,3.46,3.57a16.94,16.94,0,0,1,.15,5.77,25.59,25.59,0,0,0-.09,4.63c0,.37.35.77,1.08.77a2.12,2.12,0,0,0,.5,0h0c.61-.1,1.36-.49,1.43-1.11.1-.94.28-2,.47-3,.71-3.88,1.51-8.26-1.33-11.41-2.4-2.65-6.19-2.41-8.7-1.07-.22.12-.9.48-.92,1.09a.89.89,0,0,0,.47.79,1.25,1.25,0,0,0,.45.18l.09,0,.18.14c.38.31,1.14.06,1.55-.12l.33-.08.31-.07Zm5.27,13.5,0-.3a28.64,28.64,0,0,1,.14-3.82,18.33,18.33,0,0,0-.19-6.18c-.7-2.67-2.26-4.29-4.28-4.46v-.48a5.28,5.28,0,0,1,4.42,1.64c2.44,2.7,1.73,6.59,1,10.35-.18,1-.36,2-.47,2.9v.13l-.13.06-.22.08Zm-2.26-14.54a6.84,6.84,0,0,1,2.65,4.12A18.76,18.76,0,0,1,316,67.8q-.08.86-.12,1.68c.05-.31.11-.62.16-.92.66-3.65,1.36-7.43-.93-10a4.46,4.46,0,0,0-2-1.26Z"/></g></g></g><g id="Group_185" data-name="Group 185"><g id="Group_184" data-name="Group 184"><g id="Group_182" data-name="Group 182"><path id="Path_406" data-name="Path 406" class="cls-1" d="M309.21,66.94a11.23,11.23,0,0,0,3.17-.12c.37,0,1.67-.34,1.43-1s-1.58-.39-2-.3a9.43,9.43,0,0,0-2.67.67C308.72,66.44,308.72,66.85,309.21,66.94Z"/><path id="Path_407" data-name="Path 407" class="cls-1" d="M312.43,67.05h0l-.72.08a8.19,8.19,0,0,1-2.52,0h0a.63.63,0,0,1-.56-.5A.68.68,0,0,1,309,66a7.1,7.1,0,0,1,2.12-.58l.63-.11c1.3-.26,2.07-.1,2.29.45a.67.67,0,0,1-.05.57A2.44,2.44,0,0,1,312.43,67.05Zm-.58-.42.51,0a2.13,2.13,0,0,0,1.22-.5.14.14,0,0,0,0-.14c0-.11-.29-.45-1.75-.16l-.64.12a6.39,6.39,0,0,0-2,.53c-.13.07-.16.15-.16.18s.06.07.19.1a8.12,8.12,0,0,0,2.36,0Z"/></g><g id="Group_183" data-name="Group 183"><path id="Path_408" data-name="Path 408" class="cls-1" d="M311.33,67.78a7.27,7.27,0,0,1-2.28,0h0a1.24,1.24,0,0,1-1.05-1,1.27,1.27,0,0,1,.72-1.29,7.31,7.31,0,0,1,2.3-.65l.61-.11c1.62-.32,2.62,0,3,.83a1.26,1.26,0,0,1-.1,1.1,3.09,3.09,0,0,1-2.05,1l-.7.08Zm-2-1.67-.16.83Z"/><path id="Path_409" data-name="Path 409" class="cls-1" d="M312.51,67.89l-.73.08-.42,0A7.47,7.47,0,0,1,309,68a1.48,1.48,0,0,1-1.24-1.2,1.53,1.53,0,0,1,.85-1.54A7.56,7.56,0,0,1,311,64.6l.6-.11c1.77-.35,2.85,0,3.24,1a1.46,1.46,0,0,1-.12,1.32A3.16,3.16,0,0,1,312.51,67.89Zm-.51-.42.43,0h0a2.78,2.78,0,0,0,1.85-.89,1,1,0,0,0,.08-.89c-.29-.75-1.2-1-2.7-.68l-.62.11a7.27,7.27,0,0,0-2.23.62,1.06,1.06,0,0,0-.6,1,1,1,0,0,0,.86.8,7.19,7.19,0,0,0,2.22,0l.69-.09ZM309.45,67l-.47-.1.19-1,.5-.06Z"/></g></g></g><g id="Group_189" data-name="Group 189"><g id="Group_188" data-name="Group 188"><g id="Group_186" data-name="Group 186"><path id="Path_410" data-name="Path 410" class="cls-1" d="M309.68,78.66a17.63,17.63,0,0,1,5.09-.9c.38,0,1.19-.07,1.45-.44s.11-.56-.29-.64a13.77,13.77,0,0,0-7.88,1.09c-.44.19-.9.53-.42.93s1.56.14,2.05,0Z"/><path id="Path_411" data-name="Path 411" class="cls-1" d="M308.78,79.13a1.75,1.75,0,0,1-1.3-.24.66.66,0,0,1-.29-.61c.06-.35.45-.59.77-.72a13.88,13.88,0,0,1,8-1.1.7.7,0,0,1,.56.39.66.66,0,0,1-.11.62c-.33.46-1.17.52-1.62.55a17.2,17.2,0,0,0-5,.88h0A4.75,4.75,0,0,1,308.78,79.13Zm3.63-2.3A15.83,15.83,0,0,0,308.14,78c-.31.13-.46.28-.47.36s0,.1.12.16c.33.28,1.26.14,1.81-.07a17.37,17.37,0,0,1,5.15-.91c.3,0,1.08-.07,1.27-.35.06-.08.07-.14.06-.16s-.06-.07-.2-.1a11.22,11.22,0,0,0-3.47-.1Z"/></g><g id="Group_187" data-name="Group 187"><path id="Path_412" data-name="Path 412" class="cls-1" d="M308.83,79.73a2.29,2.29,0,0,1-1.74-.38,1.24,1.24,0,0,1-.5-1.16,1.6,1.6,0,0,1,1.13-1.2,14.47,14.47,0,0,1,8.36-1.14,1.28,1.28,0,0,1,1,.75,1.26,1.26,0,0,1-.18,1.2,2.66,2.66,0,0,1-2.08.8,16.57,16.57,0,0,0-4.84.85h0A4.79,4.79,0,0,1,308.83,79.73Z"/><path id="Path_413" data-name="Path 413" class="cls-1" d="M308.88,80h0a2.49,2.49,0,0,1-1.91-.43,1.46,1.46,0,0,1-.59-1.38,1.83,1.83,0,0,1,1.28-1.39,14.69,14.69,0,0,1,8.5-1.15,1.44,1.44,0,0,1,1,2.32,2.9,2.9,0,0,1-2.27.9,16.48,16.48,0,0,0-4.77.83h0A5.27,5.27,0,0,1,308.88,80Zm-.08-.48a4.11,4.11,0,0,0,1.1-.26h0a16.63,16.63,0,0,1,4.89-.85,2.53,2.53,0,0,0,1.9-.7,1,1,0,0,0-.68-1.58,14.26,14.26,0,0,0-8.22,1.12,1.46,1.46,0,0,0-1,1,1,1,0,0,0,.42,1,2,2,0,0,0,1.55.32Z"/></g></g></g><path id="Path_4064" data-name="Path 4064" class="cls-1" d="M277.23,19.87a315.37,315.37,0,0,1,3,68.85c0,.44-.36,3.2,1.5,3.43s1.94-2.71,2-3A330.06,330.06,0,0,0,280.46,17c-.09-.53-.7-2.37-2.29-1.45s-1.13,3.07-.94,4.33Z"/><path id="Path_4065" data-name="Path 4065" class="cls-1" d="M271.74,17.12c3.84-2.19,7.92-4.5,12.47-4.5s7.84,2.46,9.71,6.5a36,36,0,0,1,2,5.54,15.44,15.44,0,0,1,.57,2.94c0,.36,0,0,0-.13a6,6,0,0,1-.39,1.37A9.52,9.52,0,0,1,292,33.21c-.59.34-5.29,2.91-5.49,1.67l.15,3.14c0,1.23,0,.66.43.1s.64-.83.95-1.24c.59-.75,1.19-1.5,1.79-2.24,1.27-1.55,1.78-3.76,3.12-5.24,2.69-3,6.27-6.84,9.26-9.5.8-.71.65-1.24.6-2.2,0-.31-.22-2.81-.85-2.25a113.59,113.59,0,0,0-13.59,14.4,17.1,17.1,0,0,0-2.44,3.41,11,11,0,0,0-.45,6.17c.19,1,.58,2.3,1.85,2.27a6.88,6.88,0,0,0,2.14-.82c.7-.31,1.4-.64,2.08-1A11,11,0,0,0,297,34a22.43,22.43,0,0,0,.76-10.1,35.58,35.58,0,0,0-2.35-8.7c-1-2.53-2.25-5.19-4.46-6.9-6-4.62-13.51-.82-19.12,2.37-.83.48-.72,2.4-.73,3.22,0,.21.24,3.47.67,3.23Z"/><path id="Path_4066" data-name="Path 4066" class="cls-1" d="M324.48,0c.12.18-5.69,6-6.2,6.67a29.33,29.33,0,0,0-4,7.84c-1.68,5.19-2,11.18,1.08,16.12,1.58,2.53,5.48.74,8-.17,5.68-2.08,10-5.56,15.57-7.63-.37.13-.87-1.89-.86-2.07l.09,1.06,0-.49c0,.14,0,.27,0,.4q.08,1.23.12,2.46.12,2.85.18,5.7c.08,3.26.14,6.52.16,9.78v.58c0,1,0-1.94,0-.1-.13,13.79-.3,27.58-.23,41.37,0,9,.2,18,.37,26.94,0,1.53-.39,18.84,1.69,18.12.92-.31,2-3.77,2.1-4.7,1.85-30.1-.34-50.18-.06-80.3a98.23,98.23,0,0,0-.84-14.34,72.65,72.65,0,0,0-1.42-7.46c-.41-1.64-.54-5.23-4.08-3.76-2.76,1.14-4.83,3-7.45,4.32a56.66,56.66,0,0,1-5.56,2.38c-1.48.54-3.25,1.5-5,1.54-2.73.07-2.13-1.62-2.29-3.23l.24-2.9c-.24-.1,0,.32.07.14,1.52-3.15,4.56-5.78,6.77-8.7S326.53,3,324.48,0Z"/><path id="Path_4067" data-name="Path 4067" class="cls-1" d="M314.29,23.69A55,55,0,0,0,333.94,11c.77-.77.48-3,.39-4,0-.3-.33-2.82-.92-2.23-5.47,5.51-12.53,13.32-19.79,16.06C312.18,21.36,313.91,23.83,314.29,23.69Z"/></g></g></g></svg>